# AST/ASF file generated using VICON BodyLanguage
# -----------------------------------------------
:version 1.10
:name VICON
:units
  mass 1.0
  length 0.45
  angle deg
:documentation
   .ast/.asf automatically generated from VICON data using
   VICON BodyBuilder and BodyLanguage model FoxedUp or BRILLIANT.MOD
:root
   order TX TY TZ RX RY RZ
   axis XYZ
   position 0 0 0  
   orientation 0 0 0 
:bonedata
  begin
     id 1 
     name lhipjoint
     direction 0.677091 -0.635792 0.370561 
     length 2.74323 
     axis 0 0 0  XYZ
  end
  begin
     id 2 
     name lfemur
     direction 0.34202 -0.939693 0  
     length 7.44995  
     axis 0 0 20  XYZ
    dof rx ry rz
    limits (-160.0 20.0)
           (-70.0 70.0)
           (-60.0 70.0)
  end
  begin
     id 3 
     name ltibia
     direction 0.34202 -0.939693 0   
     length 7.34467   
     axis 0 0 20   XYZ
    dof rx
    limits (-10.0 170.0)
  end
  begin
     id 4 
     name lfoot
     direction 0.101953 -0.280114 0.954537   
     length 1.72105   
     axis -90 7.62852e-016 20   XYZ
    dof rx rz
    limits (-45.0 90.0)
           (-70.0 20.0)
  end
  begin
     id 5 
     name ltoes
     direction 1.53537e-011 -4.21915e-011 1   
     length 0.865872   
     axis -90 7.62852e-016 20   XYZ
    dof rx
    limits (-90.0 20.0)
  end
  begin
     id 6 
     name rhipjoint
     direction -0.695735 -0.620586 0.361699   
     length 2.81045  
     axis 0 0 0  XYZ 
  end
  begin
     id 7 
     name rfemur
     direction -0.34202 -0.939693 0   
     length 7.29387   
     axis 0 0 -20   XYZ
    dof rx ry rz
    limits (-160.0 20.0)
           (-70.0 70.0)
           (-70.0 60.0)
  end
  begin
     id 8 
     name rtibia
     direction -0.34202 -0.939693 0   
     length 7.44935   
     axis 0 0 -20   XYZ
    dof rx
    limits (-10.0 170.0)
 end
 begin
     id 9 
     name rfoot
     direction -0.104163 -0.286184 0.952496   
     length 1.77731  
     axis -90 -7.62852e-016 -20   XYZ
    dof rx rz
    limits (-45.0 90.0)
           (-20.0 70.0)
  end
  begin
     id 10 
     name rtoes
     direction -1.5355e-011 -4.21888e-011 1   
     length 0.892424   
     axis -90 -7.62852e-016 -20   XYZ
    dof rx
    limits (-90.0 20.0)
  end
  begin
     id 11 
     name lowerback
     direction 0.0100202 0.997226 -0.0737589   
     length 2.16892   
     axis 0 0 0   XYZ
    dof rx ry rz
    limits (-20.0 45.0)
           (-30.0 30.0)
           (-30.0 30.0)
  end
  begin
     id 12 
     name upperback
     direction 0.00432398 0.999988 -0.00215019   
     length 2.17326   
     axis 0 0 0   XYZ
    dof rx ry rz
    limits (-20.0 45.0)
           (-30.0 30.0)
           (-30.0 30.0)
  end
  begin
     id 13 
     name thorax
     direction -0.00195047 0.999485 0.0320434   
     length 2.18139   
     axis 0 0 0   XYZ
    dof rx ry rz
    limits (-20.0 45.0)
           (-30.0 30.0)
           (-30.0 30.0)
  end
  begin
     id 14 
     name lowerneck
     direction 0.00782762 0.986241 0.165128   
     length 1.88415   
     axis 0 0 0   XYZ
    dof rx ry rz
    limits (-20.0 45.0)
           (-30.0 30.0)
           (-30.0 30.0)
  end
  begin
     id 15 
     name upperneck
     direction 0.00988667 0.981098 -0.193258   
     length 1.9242   
     axis 0 0 0   XYZ
    dof rx ry rz
    limits (-20.0 45.0)
           (-30.0 30.0)
           (-30.0 30.0)
  end
  begin
     id 16
     name head
     direction 0.00252199 0.996513 -0.0833958  
     length 1.93887  
     axis 0 0 0   XYZ
    dof rx ry rz
    limits (-20.0 45.0)
           (-30.0 30.0)
           (-30.0 30.0)
  end
  begin
     id 17 
     name lclavicle
     direction 0.929492 0.368193 -0.0218667  
     length 3.5955  
     axis 0 0 0   XYZ
    dof ry rz
    limits (-20.0 10.0)
           (0.0 20.0)
  end
  begin
     id 18 
     name lhumerus
     direction 1 -4.48972e-011 1.41911e-027   
     length 5.2795   
     axis 180 -30 -90   XYZ
    dof rx ry rz
    limits (-60.0 90.0)
           (-90.0 90.0)
           (-90.0 90.0)
  end
  begin
     id 19
     name lradius
     direction 1 -4.48963e-011 7.05772e-027   
     length 3.53504   
     axis 180 -30 -90   XYZ
    dof rx
    limits (-10.0 170.0)
  end
  begin
     id 20
     name lwrist
     direction 1 -4.48957e-011 9.54866e-027   
     length 1.76752   
     axis -7.69462e-015 90 90   XYZ
    dof ry
    limits (-180.0 0.0)
 end
  begin
     id 21 
     name lhand
     direction 1 -4.48979e-011 1.90973e-026   
     length 0.667948   
     axis -1.21857e-014 90 90   XYZ
    dof rx rz
    limits (-90.0 90.0)
           (-45.0 45.0)
  end
  begin
     id 22 
     name lfingers
     direction 1 -4.48987e-011 3.81946e-026   
     length 0.538517   
     axis -2.43714e-014 90 90   XYZ
    dof rx
    limits (0.0 90.0)
  end
  begin
     id 23
     name lthumb
     direction 0.707107 -6.34962e-011 0.707107   
     length 0.773206   
     axis -90 45 2.85299e-015   XYZ
    dof rx rz
    limits (-45.0 45.0)
           (-45.0 45.0)
  end
  begin
     id 24 
     name rclavicle
     direction -0.898763 0.414256 -0.143584   
     length 3.5176  
     axis 0 0 0   XYZ 
    dof ry rz
    limits (-10.0 20.0)
           (-20.0 0.0)
  end
  begin
     id 25 
     name rhumerus
     direction -1 -4.48971e-011 1.129e-027  
     length 5.25035   
     axis 180 30 90   XYZ
    dof rx ry rz
    limits (-90.0 60.0)
           (-90.0 90.0)
           (-90.0 90.0)
  end
  begin
     id 26 
     name rradius
     direction -1 -4.48955e-011 6.34664e-027   
     length 3.58884   
     axis 180 30 90   XYZ
    dof rx
    limits (-10.0 170.0)
  end
  begin
     id 27 
     name rwrist
     direction -1 -4.48966e-011 9.54866e-027   
     length 1.79442   
     axis -7.69462e-015 -90 -90   XYZ
    dof ry
    limits (-180.0 0.0)
  end
  begin
     id 28
     name rhand
     direction -1 -4.48973e-011 1.90973e-026   
     length 0.779235   
     axis -1.21857e-014 -90 -90   XYZ
    dof rx rz
    limits (-90.0 90.0)
           (-45.0 45.0)
  end
  begin
     id 29
     name rfingers
     direction -1 -4.48984e-011 3.81946e-026   
     length 0.62824   
     axis -2.43714e-014 -90 -90   XYZ
    dof rx
    limits (0.0 90.0)
  end
  begin
     id 30
     name rthumb
     direction -0.707107 -6.34968e-011 0.707107   
     length 0.90203   
     axis -90 -45 -2.85299e-015   XYZ
    dof rx rz
    limits (-45.0 45.0)
           (-45.0 45.0)
  end
:hierarchy
  begin
    root lhipjoint rhipjoint lowerback
    lhipjoint lfemur
    lfemur ltibia
    ltibia lfoot
    lfoot ltoes
    rhipjoint rfemur
    rfemur rtibia
    rtibia rfoot
    rfoot rtoes
    lowerback upperback
    upperback thorax
    thorax lowerneck lclavicle rclavicle
    lowerneck upperneck
    upperneck head
    lclavicle lhumerus
    lhumerus lradius
    lradius lwrist
    lwrist lhand lthumb
    lhand lfingers
    rclavicle rhumerus
    rhumerus rradius
    rradius rwrist
    rwrist rhand rthumb
    rhand rfingers
  end

#!OML:ASF I:\Random Stuff\random\construction\7_22_03\Session 2\subj1.ASF
:FULLY-SPECIFIED
:DEGREES
293
root 3.90198 17.8335 -7.5562 16.8564 -37.394 -4.1123
lowerback 7.53556 0.734951 3.86631
upperback 3.55901 1.18066 -1.08601
thorax -0.438406 0.624359 -3.38466
lowerneck -19.8655 5.0711 -0.163539
upperneck 42.6724 10.598 -6.6859
head 20.9185 2.83944 -1.04042
rclavicle -8.42847e-014 3.57812e-015
rhumerus -0.283648 48.2361 -62.68
rradius 73.587
rwrist 9.23101
rhand -15.7996 31.9288
rfingers 7.12502
rthumb 10.3935 2.20573
lclavicle -8.42847e-014 3.57812e-015
lhumerus 17.7489 -48.2812 74.2897
lradius 50.8763
lwrist -8.87083
lhand -33.194 41.3134
lfingers 7.12502
lthumb -6.40152 431.197
rfemur -12.3199 6.65686 17.7588
rtibia 1.94809e-014
rfoot 0.67509 -9.12848
rtoes -15.7786
lfemur -19.5261 -10.327 -7.79835
ltibia 20.6364
lfoot -13.9575 22.2036
ltoes -24.2269
294
root 3.90716 17.8318 -7.55687 16.9199 -37.4776 -4.14011
lowerback 7.56088 0.827384 3.91013
upperback 3.57885 1.30465 -1.21468
thorax -0.416427 0.688433 -3.55233
lowerneck -19.8821 4.89808 -0.140107
upperneck 42.6647 10.282 -6.61751
head 20.8869 2.73533 -1.08214
rclavicle -9.22361e-014 7.55382e-015
rhumerus -2.13536 47.3877 -64.2174
rradius 74.5908
rwrist 9.37509
rhand -15.5144 30.4049
rfingers 7.12502
rthumb 10.6686 0.695771
lclavicle -9.22361e-014 7.55382e-015
lhumerus 17.5128 -48.3061 74.4954
lradius 51.1592
lwrist -9.04984
lhand -33.3652 41.2898
lfingers 7.12502
lthumb -6.56681 431.168
rfemur -12.3935 6.73778 17.7416
rtibia 1.55052e-014
rfoot 0.684055 -9.10363
rtoes -15.655
lfemur -19.5585 -10.3094 -7.78453
ltibia 20.6529
lfoot -13.9627 22.2298
ltoes -24.353
295
root 3.91309 17.8279 -7.55767 16.9618 -37.5632 -4.17279
lowerback 7.62629 0.830753 3.89282
upperback 3.5931 1.30889 -1.27384
thorax -0.436327 0.690413 -3.60557
lowerneck -19.8405 4.87447 -0.104339
upperneck 42.5713 10.2657 -6.72614
head 20.8242 2.72518 -1.14569
rclavicle -6.34123e-014 3.93594e-014
rhumerus -3.83401 47.0118 -65.6399
rradius 75.7535
rwrist 9.34947
rhand -15.5922 28.1205
rfingers 7.12502
rthumb 10.5935 -1.59254
lclavicle -6.34123e-014 3.93594e-014
lhumerus 17.1864 -48.052 74.7734
lradius 51.4299
lwrist -9.3312
lhand -33.3955 41.3551
lfingers 7.12502
lthumb -6.59603 431.232
rfemur -12.4399 6.82129 17.7258
rtibia -2.8625e-014
rfoot 0.683378 -9.08361
rtoes -15.7129
lfemur -19.5697 -10.3301 -7.77216
ltibia 20.6662
lfoot -13.9879 22.3679
ltoes -24.8134
296
root 3.91891 17.8277 -7.55901 17.0471 -37.6489 -4.21252
lowerback 7.67599 0.813954 3.86814
upperback 3.5771 1.2862 -1.32747
thorax -0.481706 0.677908 -3.64696
lowerneck -19.702 4.94866 -0.059532
upperneck 42.3943 10.3778 -6.81512
head 20.6806 2.77435 -1.16944
rclavicle -7.91163e-014 2.82274e-014
rhumerus -5.636 46.842 -67.2245
rradius 77.0242
rwrist 8.94514
rhand -16.2975 25.3389
rfingers 7.12502
rthumb 9.91311 -4.40773
lclavicle -7.91163e-014 2.82274e-014
lhumerus 16.9733 -47.8439 74.9038
lradius 51.6413
lwrist -9.38433
lhand -33.4687 41.4109
lfingers 7.12502
lthumb -6.66668 431.286
rfemur -12.5394 6.90582 17.7113
rtibia -3.97569e-016
rfoot 0.65749 -9.08459
rtoes -15.6465
lfemur -19.6329 -10.2542 -7.75687
ltibia 20.6824
lfoot -14.0132 22.4218
ltoes -25.0662
297
root 3.92412 17.831 -7.55991 17.1454 -37.7489 -4.23724
lowerback 7.68806 0.789684 3.79976
upperback 3.56765 1.24911 -1.3829
thorax -0.501982 0.658442 -3.66348
lowerneck -19.6041 4.97922 -0.100291
upperneck 42.2483 10.4225 -6.82141
head 20.5496 2.7925 -1.1519
rclavicle 1.05356e-014 1.59028e-014
rhumerus -7.515 46.6311 -68.8994
rradius 78.3822
rwrist 8.66698
rhand -17.0293 22.3633
rfingers 7.12502
rthumb 9.20708 -7.41569
lclavicle 1.05356e-014 1.59028e-014
lhumerus 16.7548 -47.5616 74.9898
lradius 51.8571
lwrist -9.39139
lhand -33.5176 41.3882
lfingers 7.12502
lthumb -6.71391 431.262
rfemur -12.6679 6.99934 17.6767
rtibia -1.55052e-014
rfoot 0.619161 -9.10694
rtoes -15.361
lfemur -19.7129 -10.1177 -7.76199
ltibia 20.6921
lfoot -14.012 22.3984
ltoes -24.8681
298
root 3.92973 17.8318 -7.56001 17.1975 -37.8454 -4.23675
lowerback 7.7449 0.629567 3.55884
upperback 3.57508 1.02293 -1.30462
thorax -0.553489 0.541163 -3.42979
lowerneck -19.6019 5.12986 -0.36632
upperneck 42.1348 10.7708 -6.86133
head 20.4813 2.87634 -1.04221
rclavicle -2.5842e-014 1.35174e-014
rhumerus -9.16823 46.7994 -70.3423
rradius 79.7976
rwrist 8.63675
rhand -17.2599 19.4252
rfingers 7.12502
rthumb 8.98459 -10.3635
lclavicle -2.5842e-014 1.35174e-014
lhumerus 16.2921 -46.7199 75.3519
lradius 52.0554
lwrist -9.59634
lhand -33.4734 41.3856
lfingers 7.12502
lthumb -6.67122 431.261
rfemur -12.7501 7.08357 17.6252
rtibia -1.35174e-014
rfoot 0.578629 -9.11632
rtoes -15.3867
lfemur -19.7543 -10.0727 -7.78173
ltibia 20.6927
lfoot -13.9851 22.446
ltoes -24.8066
